<?xml version="1.0" encoding="utf-8"?>
<!-- Generator: Adobe Illustrator 18.0.0, SVG Export Plug-In . SVG Version: 6.00 Build 0)  -->
<!DOCTYPE svg PUBLIC "-//W3C//DTD SVG 1.1//EN" "http://www.w3.org/Graphics/SVG/1.1/DTD/svg11.dtd">
<svg version="1.1" id="Layer_1" xmlns="http://www.w3.org/2000/svg" xmlns:xlink="http://www.w3.org/1999/xlink" x="0px" y="0px"
	 viewBox="0 0 721 439" enable-background="new 0 0 721 439" xml:space="preserve">
<g>
	<path fill="#FFFFFF" d="M655.6,281.7c-8.8-5.5-18.2-10.2-27.5-14.9c-3.2-1.6-7.5-4-10.3-3.1c-12.9,3.9-22.9,12-28.5,24.6
		c-3.8,8.6-7.1,17.3-10.1,26.2c-8.6,25-26.4,39.7-51,47.8c-18.9,6.2-38,5.1-57.3,5.2c-20.5,0-39.3-5.7-54.8-18.1
		c-18.2-14.6-34.5-31.6-51.7-47.4c-17.7-16.2-31.5-38-57.6-42.4c-31.8-5.4-41.9-3.8-47.1,24.9c-2.2,12-7.8,23.8-13.6,34.7
		c-9.1,17.2-31.9,27.5-50.7,11c-7.9-6.9-15.3-14.5-22.5-22.2c-7.7-8.3-14.4-17.7-22.4-25.7c-9-8.9-15.5-8.2-23.6,1.5
		c-7.2,8.6-15,16.4-26.5,18.1c-10.4,1.6-21,2.4-31.5,3.1c-5.6,0.3-8.9,1-4.7,7.3c4.5,6.8,8.2,14.3,13.4,20.6
		c30.4,37,72.8,55.1,116.2,70.3c22.4,7.8,46.3,12.4,69.9,15.6c72.9,9.8,156.1,5.3,212.3-6.3c75.8-15.6,135.2-40.9,166-89.7
		c7.5-9.7,12.6-21.4,18-32.6C660.5,288.3,658,283.1,655.6,281.7z"/>
	<path fill="#FFFFFF" d="M687.9,183c-6.3-8-7.9-13.9-2.1-22.9c5.5-8.7,6.9-18,3.2-29.2c-4.4-13.4-12-24.1-21.6-33
		c-8.1-7.4-17.4-13.5-26.7-19.7c-1.8-2.4-3.5-4.9-6.1-6.7c-0.7-0.5-1.6-1-2.4-1.4c-0.2-0.4-0.5-0.8-1-1c-2.1-1-4.2-2.1-6.4-3.1
		c-1.3-1.2-2.7-2.3-4.3-3.2c-20.6-11.4-41.6-21.3-65.3-25.1c-20.1-3.2-39.8-9.2-59.9-12.6c-19-3.2-38.5-3.7-57.6-6.8
		c-24.8-4.1-49.4-4.8-74.2-0.2c-4.1,0.8-8.6-0.5-12.9-1c-3.9-0.4-7.8-1.6-11.7-1.3c-21.3,1.2-42.6,2-63.7,4.5
		c-7.1,0.8-13.9,3.2-20.8,5.6c-0.1,0-0.2,0.1-0.4,0.1c-3,0.5-5.9,1.2-8.5,2.3c-0.1,0.1-0.3,0.1-0.4,0.2c-2.5,0.7-5,1.4-7.6,2
		c-0.4,0-0.8,0.1-1.2,0.2c-13.8,2.9-27.7,5.4-40.7,10.4c-32,12.2-61.8,29-88.6,50.4c-12.4,9.9-25.3,19.8-29.7,36.6
		c-3.4,12.6-12.6,20-24.3,25.2c-24.9,11-34.9,33-39.4,57.6c-4.1,22.2,2.4,42.8,14,61.9c9.2,15.3,28.3,22.5,45.5,18.5
		c18.3-4.3,34.5-11.3,47.1-26.2c9.1-10.7,15.9-11.3,28.2-4.9c6.8,3.6,13.6,8.1,18.9,13.6c7.7,7.8,13.7,17.2,21.2,25.2
		c6.2,6.5,13,12.6,20.5,17.4c8.8,5.6,18.4,2.8,22.4-6.8c4-9.7,5.9-20.2,8.7-30.4c5.7-20.2,17.4-36.5,38.3-40.6
		c27.3-5.4,52.5,1.6,72.2,22.5c14.2,15.2,28,30.8,41.9,46.3c35.1,39.4,78.6,51.2,129.2,39.2c15.6-3.7,28.3-12.1,35.7-26.5
		c4.6-9,7.7-18.9,10.8-28.6c6.9-21.5,19.6-37.6,42.1-43.2c9.7-2.4,21.2-7.4,29.9,2.9c10.4,12.2,23.6,12.8,37.8,10.4
		c10.6-1.7,20.9-11.4,23.6-21.8C707.5,218.3,700.9,199.5,687.9,183z M69.1,264.2c-3.1,4.4-12.3,3.7-18.2-1.1
		c-7.7-6.3-10-14.3-10.5-23.1c-0.3-5.2-0.5-13.8,0-19c1-10.8,5.3-20.8,10.2-30.7c1.2-2.4,2.8-5,4.9-6.5c1-0.7,2.2-1.1,3.5-1.4
		c2.1-0.5,4.1,0.8,4.4,2.8c0.2,1.3,0.4,2.5,0.2,3.7c-2.4,13-5.5,25.8-7.8,38.8c-1.5,8.4,1.7,15.1,8.9,20.3
		C70.2,251.9,73.9,257.3,69.1,264.2z M112.1,98.2c11.2-7.5,22.6-15,34.7-20.9c4.5-2.2,10.4,6.8,6.7,9.8c-8.4,6.9-17.3,13-26.4,19.4
		c-4.3,3-9.5,4.4-11.6,3.1c-1.6-1-2.9-1.8-3.4-2.9C111.1,104.2,110.8,99.2,112.1,98.2z M137,231.7c-6.6,5.2-10.2-0.3-13.1-4.5
		c-3.4-4.8-6.4-9.8-9.4-14.8c-2.7-4.5-3.9-10.3-2.7-13.1c1-2.4,1.8-4.1,2.9-4.4c2.7-0.7,7.1,0.4,9.1,2.4c5.6,5.9,10.6,12.4,15.4,19
		C143.1,221.9,142.6,227.3,137,231.7z M161.7,164.5c-2.6,1.8-7.9,2.4-10.3,0.8c-6.4-4.2-12.3-9.5-17.6-15.1c-2-2.1-2.4-6.5-2-9.6
		c0.1-0.8,1-1.4,2-1.9c1.4-0.7,7-0.8,11.7,1.5c8.4,3.9,18.2,11.3,18.8,15.2C164.9,158.3,163.8,163.1,161.7,164.5z M512.4,50.8
		c1.3-1.5,2.6-2.7,4.2-3.3c5.1-1.7,10.9-2.6,16.1-1.9c2,0.3,3.9,1.3,5.8,2.6c2.9,2,3.4,6,1.1,9.1c-1.5,1.9-3,3.6-4.9,4.8
		c-2.6,1.7-6.9,0.6-11.7,0.8c-1,0-3.9,0.9-5.6-0.2c-1.6-1-3-2.3-4.4-3.7C510.6,56.7,510.4,53,512.4,50.8z M481.4,83.6
		c4.3-4.6,10.1-11.2,18.2-6.1c0.9,0.6,1.5,1.5,2,2.5c0.8,1.6,0.9,7.5-2.4,11.6c-4.2,5.4-11,9.6-15.5,8.9c-1.8-0.3-4.9-1.6-4.9-2.3
		C479.2,93.2,478.6,86.6,481.4,83.6z M475.2,155c7.7-7.7,15.9-15,24.6-21.5c2-1.5,7-0.3,9.8,1.2c1.6,0.9,3.1,6.1,2.2,7.1
		c-7.2,7.9-14.8,15.5-22.5,23.2c-3.7,3.7-8.6,5.3-11,3.6c-1.8-1.3-3.2-2.3-3.7-3.8C473.5,161.9,473.4,156.8,475.2,155z M417.6,18.9
		c8.6,0.4,9.4,6.8,9.3,13.9c0.2,5.7-1,10.9-8.6,10.7c-9.6-0.3-7.7-8.8-8.6-14.1C408.9,24.9,410.4,18.5,417.6,18.9z M304.8,29
		c7.3-2.5,15.1-3.7,22.8-5c6-1.1,11.3,2.7,11,7.5c-0.3,4-5.3,8.8-9.4,11.1c-3.3,1.9-8.4,0.9-10.4,1c-5.5,0-8.9,0.8-11.6-0.2
		c-2.4-0.8-5.4-3.6-5.6-5.7C301.4,34.8,302.9,29.7,304.8,29z M297.7,76.4c1.9-3.5,4.4-7.7,7.6-9c1.9-0.7,7.6,3.1,8.4,5.9
		c2,6.6,2.9,13.8,2.6,20.6c-0.1,2.4-5.4,6.5-8.1,6.3c-3.5-0.2-7.6-3.4-9.7-6.5c-0.9-1.3-1.1-3.2-1.2-5.1c-0.1-2.9-0.1-5.3,0-5.3
		c0.1,0,0-1.6-0.1-3.6C297.2,78.5,297.2,77.3,297.7,76.4z M234,49.6c1.5-3.6,3.4-7.1,5.5-10.5c1.9-2.2,3.9-4.1,6.3-5.7
		c0.2-0.1,0.4-0.2,0.5-0.3c2.8-0.8,5.7-1.5,8.5-2.1c6.6,2.7,6.1,7.3,0.2,17.3c-2.4,3.9-5.1,8.1-8.7,10.7c-2.4,1.8-8.3,2.7-9.7,1.2
		C234.4,57.8,232.8,52.4,234,49.6z M220.9,74.4c6.4-0.4,33.1,20.1,34.4,26.5c0.2,0.8,0.1,1.6,0.2,2.4c0,6.8-6,11.1-11.9,7.1
		c-10.5-7.3-20.4-15.7-29.7-24.6C209.9,81.8,214.5,74.8,220.9,74.4z M197.9,199.7c-1.6-4.3-1.5-9.3-2.9-13.7
		c-2.1-6.4,0.1-12.1,5.5-13.4c2.8-0.7,8,4.6,10.7,8.2c1,1.4,1.3,3.2,1.4,5.3c0.2,3.1,0.3,7.8,0.2,10.6c-0.1,1.7-0.4,3.4-1.2,4.8
		c-1.2,2.1-5.2,3.8-7.7,3.6C201.7,204.8,198.7,202,197.9,199.7z M239.6,232c-6.6,9.6-14.1,18.5-21.6,27.5c-0.6,0.7-1.4,1.3-2.2,1.7
		c-1.4,0.7-7.1,1.7-10.6-1.6c-2.3-2.2-3-5.2-1.2-8c7-10.7,15-20.9,23.3-30.7c1.3-1.5,7.7-0.6,9.8,1.3
		C239.3,224.2,240.9,230,239.6,232z M257.6,159.8c-1.1,1-2.3,1.8-3.6,1.9c-8.5,0.7-19.8-8.4-18.3-14.4c0.6-2.5,5.2-5.4,8.1-5.5
		c6-0.3,11.3,2,14.2,6.1C261.1,152.2,259.3,158.3,257.6,159.8z M318.2,231.5c-1.5,1.3-6.3,1-8.2-0.4c-11.2-8.3-22.3-17-32.9-26.1
		c-2-1.7-3.2-6.8-2.2-9.1c0.6-1.4,1.8-2.5,3-3.4c2-1.5,8-1.6,12.5,1.1c12.4,7.6,31.4,24.5,31.5,29
		C322,225.6,320.4,229.6,318.2,231.5z M404.6,193.1c-0.9,7.9-3.6,15.9-7,23.2c-1,2.1-7.2,3.8-9.8,2.7c-1.5-0.6-2.6-2.1-3.5-3.8
		c-1.5-2.5-1.4-8.7-0.1-13.8c1.3-5.1,2.6-9.6,4.5-13.9c1.2-2.7,7.8-6.1,8.9-5.2C400.9,185,405,189.7,404.6,193.1z M435,260.9
		c-1.4,7.6-2.5,15.3-3.4,23c-0.7,6.5-2.9,12.1-10.3,11.5c-7.5-0.6-8.4-7-7.5-13.1c0.9-8.5,1.7-17,2.8-25.5
		c0.9-6.7,4.4-11.2,11.9-9.7C436.4,248.7,436.2,254.5,435,260.9z M430.3,154.5c-12.3,10.8-25.2,19.1-43.2,18.1
		c-14.8-0.8-29.8,2.4-44.7,3.8c-21.1,2-39.1-7.8-57-16.1c-13.8-6.4-15.1-21.3-4.4-32.5c14.4-15,33.7-21.1,52.5-27.7
		c8.4-2.9,17.6-4.2,26.6-5c18.7-1.6,35.5,4.8,51.2,14.5c1.3,0.8,2.7,1.4,4.1,2.1c1.6,2.1,3.5,3.8,5.7,5.4c1.6,1.2,3.1,2.4,4.6,3.7
		c0.2,0.2,0.4,0.4,0.6,0.5c0.2,0.2,0.4,0.4,0.6,0.5c0,0.1,0.1,0.1,0.1,0.2c2,2.8,3.9,5.6,5.9,8.4C439,139.4,438.3,147.4,430.3,154.5
		z M441.1,81c-1.3,9.6-3.2,19.4-6.9,28.3c-0.6,1.5-2.7,2.3-5.3,3c-0.4,0-0.7,0-1.1,0c-2.3-0.1-5.4-3-6.6-5.4
		c-0.1-0.4-0.3-0.7-0.4-1.1c0,0,0,0,0-0.1c0-0.3,0-0.5,0-0.8c-0.7-9.5-0.4-18.8,5.2-27.3c1.4-2.2,4.3-4,7.2-4.9c0,0,0,0,0.1,0
		c1.9,0.4,3.7,1,5.4,1.6C440.1,76.4,441.4,79.3,441.1,81z M491.7,258.7c-3,1.4-9.3,1.1-11.1-1c-8.9-10.3-17.2-21.1-24.8-32.4
		c-2.2-3.2-2.2-6.2-0.5-8.4c3.1-3.9,9.5-2.9,11.2-2.3c1,0.4,2,0.9,2.7,1.8c8.6,10.1,16.7,20.5,25.1,30.7
		C498.7,252.3,496,256.6,491.7,258.7z M549.4,282.7c-4.8,19.8-24.5,37-41.8,36.1c-1.6-0.1-3.1-0.8-4.6-1.6c-2.4-1.3-3.2-4-1.9-5.9
		c0.8-1.2,1.7-2.3,2.9-3.1c6.3-4.6,13.8-7.9,19.2-13.3c6.2-6.2,11-14,15.8-21.4c2.2-3.5,2.3-9.7,8.2-7.4c1.1,0.4,1.8,1.8,2.3,3.3
		C550.2,271.5,550.6,277.6,549.4,282.7z M586.8,199.2c-1.7,2.3-3.2,4.2-5.1,4.9c-2.1,0.8-7.1-2.4-8.9-5
		c-5.6-8.3-10.8-17.1-15.3-26.1c-1.4-2.8-1.5-9.1-0.1-9.8c3.4-1.7,10.1-2.9,11.6-1.1c6,7.4,11.3,15.3,16.9,23.6
		C588.7,190,589.2,196,586.8,199.2z M607,139.2c-0.1,1.2-1.8,2.3-3.9,3.4c-2.6,1.4-8.4,0.8-13.1-1.5c-8.6-4.2-17-8.4-25-13.1
		c-1.9-1.1-1.9-7.2-1-10.6c0.5-1.6,5.6-3.6,7.6-2.9c10.9,4,21.8,8.2,32.1,13.6C606.3,129.5,607.4,135.5,607,139.2z M607.7,88.9
		c-3.8-1-7.7-2.2-11.5-2.2c-6.6,0-11.4-2.6-10.7-9.3c0.7-6.5,6-8.4,12.4-7.9c3.6,0.3,7.3,0.5,11,0.8c1.7,0.4,3.4,0.7,5.1,1
		c2.6,0.5,5.3,1.1,7.9,1.6c4.9,1.6,6.7,5.1,7,9.3C625.8,89.6,618.6,92,607.7,88.9z M644.9,151c-1,3-2.1,5.8-4,8
		c-1.3,1.5-3.7,2.2-6.4,2.5c-3.8,0.6-7.7-1.7-8.7-5.1c-0.7-2.4-1.2-4.7-0.3-6.2c7-12,4.5-22-2.9-32.6c-1-1.4-0.9-3.6-0.6-6
		c0.5-3.4,3.2-5.2,6.1-4.1c1.8,0.7,3.5,1.5,4.9,2.7c5.9,5.1,10.3,13.8,12.8,22.9C647.1,138.2,646.4,146.3,644.9,151z M669.3,230.1
		c-0.6,2.6-3,6.2-5.2,6.7c-2.1,0.4-5.6-2.1-7.2-4.3c-1.7-2.3-2.1-5.8-2.7-8.8c-1.3-6.1-2.6-12.2-3.7-18.3c-0.6-3.5-1.9-7.5-0.7-10.4
		c0.7-1.8,2.1-3.4,3.6-4.8c2.4-2.4,6.1-2.7,8.2-0.8c1.3,1.2,2.5,2.4,3.5,3.8c1.7,2.5,2.8,5.7,3.3,8.7c0.8,5.4,1,11,1.2,13.9
		C669.5,222.3,670.1,226.4,669.3,230.1z"/>
</g>
</svg>
