<?xml version="1.0" encoding="utf-8"?>
<!-- Generator: Adobe Illustrator 16.0.4, SVG Export Plug-In . SVG Version: 6.00 Build 0)  -->
<!DOCTYPE svg PUBLIC "-//W3C//DTD SVG 1.1//EN" "http://www.w3.org/Graphics/SVG/1.1/DTD/svg11.dtd">
<svg version="1.1" id="Layer_1" xmlns="http://www.w3.org/2000/svg" xmlns:xlink="http://www.w3.org/1999/xlink" x="0px" y="0px"
	 width="1247.09px" height="532.871px" viewBox="0 0 1247.09 532.871" enable-background="new 0 0 1247.09 532.871"
	 xml:space="preserve">
<g>
	<defs>
		<rect id="SVGID_1_" width="1247.09" height="532.871"/>
	</defs>
	<clipPath id="SVGID_2_">
		<use xlink:href="#SVGID_1_"  overflow="visible"/>
	</clipPath>
	<g clip-path="url(#SVGID_2_)">
		<defs>
			<rect id="SVGID_3_" width="1247.088" height="532.871"/>
		</defs>
		<clipPath id="SVGID_4_">
			<use xlink:href="#SVGID_3_"  overflow="visible"/>
		</clipPath>
		<path clip-path="url(#SVGID_4_)" fill="none" stroke="#E05E0D" stroke-miterlimit="10" d="M552.372,532.371H12.5
			c-6.6,0-12-5.4-12-12v-374c0-6.6,5.4-12,12-12h539.872c6.6,0,12,5.4,12,12v374C564.372,526.971,558.972,532.371,552.372,532.371z"
			/>
		<path clip-path="url(#SVGID_4_)" fill="none" stroke="#E05E0D" stroke-miterlimit="10" d="M552.372,532.371H12.5
			c-6.6,0-12-5.4-12-12v-374c0-6.6,5.4-12,12-12h539.872c6.6,0,12,5.4,12,12v374C564.372,526.971,558.972,532.371,552.372,532.371z"
			/>
		
			<line clip-path="url(#SVGID_4_)" fill="none" stroke="#E05E0D" stroke-miterlimit="10" x1="0.5" y1="184.371" x2="564.372" y2="184.371"/>
		<circle clip-path="url(#SVGID_4_)" fill="none" stroke="#E05E0D" stroke-miterlimit="10" cx="25.293" cy="158.901" r="9"/>
		<circle clip-path="url(#SVGID_4_)" fill="none" stroke="#E05E0D" stroke-miterlimit="10" cx="52.707" cy="158.901" r="9"/>
		<circle clip-path="url(#SVGID_4_)" fill="none" stroke="#E05E0D" stroke-miterlimit="10" cx="80.12" cy="158.901" r="9"/>
		<path clip-path="url(#SVGID_4_)" fill="none" stroke="#E05E0D" stroke-miterlimit="10" d="M545.135,172.159H127.257
			c-3.299,0-5.997-2.699-5.997-5.997v-15.006c0-3.298,2.698-5.997,5.997-5.997h417.878c3.298,0,5.997,2.699,5.997,5.997v15.006
			C551.132,169.459,548.433,172.159,545.135,172.159z"/>
		<g clip-path="url(#SVGID_4_)">
			<g>
				<defs>
					<rect id="SVGID_5_" x="29.011" y="217.829" width="501.146" height="285.421"/>
				</defs>
				<clipPath id="SVGID_6_">
					<use xlink:href="#SVGID_5_"  overflow="visible"/>
				</clipPath>
				<g clip-path="url(#SVGID_6_)">
					<defs>
						<path id="SVGID_7_" d="M520.393,497.276H38.518c-1.102,0-2.003-0.901-2.003-2.002V226.468c0-1.101,0.901-2.002,2.003-2.002
							h481.875c1.101,0,2.002,0.901,2.002,2.002v268.806C522.395,496.375,521.494,497.276,520.393,497.276"/>
					</defs>
					<clipPath id="SVGID_8_">
						<use xlink:href="#SVGID_7_"  overflow="visible"/>
					</clipPath>
					<path clip-path="url(#SVGID_8_)" fill="#FFFFFF" d="M520.393,497.276H38.518c-1.102,0-2.003-0.901-2.003-2.003V226.469
						c0-1.102,0.901-2.003,2.003-2.003h481.875c1.101,0,2.002,0.901,2.002,2.003v268.805
						C522.395,496.375,521.494,497.276,520.393,497.276"/>
					<path clip-path="url(#SVGID_8_)" fill="#FFFFFF" d="M520.393,497.276H38.518c-1.102,0-2.003-0.901-2.003-2.003V226.469
						c0-1.102,0.901-2.003,2.003-2.003h481.875c1.101,0,2.002,0.901,2.002,2.003v268.805
						C522.395,496.375,521.494,497.276,520.393,497.276"/>
					<g clip-path="url(#SVGID_8_)">
						<g>
							<defs>
								<rect id="SVGID_9_" x="29.011" y="217.829" width="501.146" height="285.421"/>
							</defs>
							<clipPath id="SVGID_10_">
								<use xlink:href="#SVGID_9_"  overflow="visible"/>
							</clipPath>
							<g clip-path="url(#SVGID_10_)">
								<defs>
									<rect id="SVGID_11_" x="29.011" y="217.829" width="501.146" height="285.421"/>
								</defs>
								<clipPath id="SVGID_12_">
									<use xlink:href="#SVGID_11_"  overflow="visible"/>
								</clipPath>
								<g transform="matrix(1 0 0 1 -1.907349e-06 -1.525879e-05)" clip-path="url(#SVGID_12_)">
									
										<image overflow="visible" width="1510" height="860" xlink:href="8C0E4A9949CE1A5B.jpg"  transform="matrix(0.3319 0 0 0.3319 29.0107 217.8286)">
									</image>
								</g>
							</g>
						</g>
					</g>
				</g>
			</g>
		</g>
	</g>
	<g clip-path="url(#SVGID_2_)">
		<text transform="matrix(1 0 0 1 160.6406 355.8926)"><tspan x="0" y="0" font-family="'TitilliumText15L-800wt'" font-size="33.1885" letter-spacing="3">LEAR</tspan><tspan x="91.433" y="0" font-family="'TitilliumText15L-800wt'" font-size="33.1885" letter-spacing="3">N</tspan><tspan x="118.548" y="0" font-family="'TitilliumText15L-800wt'" font-size="33.1885" letter-spacing="3"> </tspan><tspan x="130.33" y="0" font-family="'TitilliumText15L-800wt'" font-size="33.1885" letter-spacing="3">M</tspan><tspan x="162.456" y="0" font-family="'TitilliumText15L-800wt'" font-size="33.1885" letter-spacing="3">OR</tspan><tspan x="212.338" y="0" font-family="'TitilliumText15L-800wt'" font-size="33.1885">E</tspan></text>
	</g>
	<g clip-path="url(#SVGID_2_)">
		<text transform="matrix(1 0 0 1 4.6426 82.6006)" fill="#E05E0D" font-family="'TitilliumText15L-1wt'" font-size="80">A</text>
	</g>
	<g clip-path="url(#SVGID_2_)">
		<text transform="matrix(1 0 0 1 682.7168 82.6006)" fill="#27CC8D" font-family="'TitilliumText15L-1wt'" font-size="80">B</text>
	</g>
	<g clip-path="url(#SVGID_2_)">
		<text transform="matrix(1 0 0 1 592.3696 357.6611)"><tspan x="0" y="0" fill="#BBBDBF" font-family="'TitilliumText15L-400wt'" font-size="50" letter-spacing="5">V</tspan><tspan x="35.649" y="0" fill="#BBBDBF" font-family="'TitilliumText15L-400wt'" font-size="50">S</tspan></text>
	</g>
	<g clip-path="url(#SVGID_2_)">
		<text transform="matrix(1 0 0 1 91.1484 70.5576)"><tspan x="0" y="0" fill="#E05E0D" font-family="'FontAwesome'" font-size="40" letter-spacing="4"></tspan><tspan x="30.514" y="0" fill="#E05E0D" font-family="'FontAwesome'" font-size="40"> </tspan></text>
	</g>
	<g clip-path="url(#SVGID_2_)">
		<text transform="matrix(1 0 0 1 136.4688 70.5576)"><tspan x="0" y="0" fill="#E05E0D" font-family="'ProximaNova-Semibold'" font-size="40" letter-spacing="4">2.2</tspan><tspan x="71.799" y="0" fill="#E05E0D" font-family="'ProximaNova-Semibold'" font-size="40">%</tspan></text>
	</g>
	<g clip-path="url(#SVGID_2_)">
		<text transform="matrix(1 0 0 1 770.793 70.5576)"><tspan x="0" y="0" fill="#27CC8D" font-family="'FontAwesome'" font-size="40" letter-spacing="4"></tspan><tspan x="30.514" y="0" fill="#27CC8D" font-family="'FontAwesome'" font-size="40"> </tspan></text>
	</g>
	<g clip-path="url(#SVGID_2_)">
		<text transform="matrix(1 0 0 1 816.1064 70.5576)"><tspan x="0" y="0" fill="#27CC8D" font-family="'ProximaNova-Semibold'" font-size="40" letter-spacing="4">4</tspan><tspan x="27.999" y="0" fill="#27CC8D" font-family="'ProximaNova-Semibold'" font-size="40" letter-spacing="3">.</tspan><tspan x="41.6" y="0" fill="#27CC8D" font-family="'ProximaNova-Semibold'" font-size="40" letter-spacing="4">6</tspan><tspan x="70.439" y="0" fill="#27CC8D" font-family="'ProximaNova-Semibold'" font-size="40">%</tspan></text>
	</g>
	<g clip-path="url(#SVGID_2_)">
		<defs>
			<rect id="SVGID_13_" width="1247.088" height="532.871"/>
		</defs>
		<clipPath id="SVGID_14_">
			<use xlink:href="#SVGID_13_"  overflow="visible"/>
		</clipPath>
		<path clip-path="url(#SVGID_14_)" fill="none" stroke="#000000" stroke-width="3" stroke-miterlimit="10" d="M410.083,373.77
			h-266.8c-1.102,0-2.003-0.901-2.003-2.002v-55.732c0-1.101,0.901-2.002,2.003-2.002h266.8c1.101,0,2.002,0.901,2.002,2.002v55.732
			C412.085,372.868,411.185,373.77,410.083,373.77z"/>
		<path clip-path="url(#SVGID_14_)" fill="none" stroke="#27CC8D" stroke-miterlimit="10" d="M1234.588,532.371H694.717
			c-6.601,0-12-5.4-12-12v-374c0-6.6,5.399-12,12-12h539.871c6.601,0,12,5.4,12,12v374
			C1246.588,526.971,1241.188,532.371,1234.588,532.371z"/>
		<path clip-path="url(#SVGID_14_)" fill="none" stroke="#27CC8D" stroke-miterlimit="10" d="M1234.588,532.371H694.717
			c-6.601,0-12-5.4-12-12v-374c0-6.6,5.399-12,12-12h539.871c6.601,0,12,5.4,12,12v374
			C1246.588,526.971,1241.188,532.371,1234.588,532.371z"/>
		
			<line clip-path="url(#SVGID_14_)" fill="none" stroke="#27CC8D" stroke-miterlimit="10" x1="682.716" y1="184.371" x2="1246.588" y2="184.371"/>
		<circle clip-path="url(#SVGID_14_)" fill="none" stroke="#27CC8D" stroke-miterlimit="10" cx="707.509" cy="158.901" r="9"/>
		<circle clip-path="url(#SVGID_14_)" fill="none" stroke="#27CC8D" stroke-miterlimit="10" cx="734.922" cy="158.901" r="9"/>
		<circle clip-path="url(#SVGID_14_)" fill="none" stroke="#27CC8D" stroke-miterlimit="10" cx="762.336" cy="158.901" r="9"/>
		<path clip-path="url(#SVGID_14_)" fill="none" stroke="#27CC8D" stroke-miterlimit="10" d="M1227.352,172.159H809.474
			c-3.3,0-5.997-2.699-5.997-5.997v-15.006c0-3.298,2.697-5.997,5.997-5.997h417.878c3.298,0,5.996,2.699,5.996,5.997v15.006
			C1233.348,169.459,1230.649,172.159,1227.352,172.159z"/>
	</g>
	<g clip-path="url(#SVGID_2_)">
		<defs>
			<path id="SVGID_15_" d="M720.733,224.466c-1.101,0-2.001,0.901-2.001,2.003v268.804c0,1.102,0.9,2.003,2.001,2.003h481.876
				c1.101,0,2.002-0.901,2.002-2.003V226.469c0-1.102-0.901-2.003-2.002-2.003H720.733z"/>
		</defs>
		<clipPath id="SVGID_16_">
			<use xlink:href="#SVGID_15_"  overflow="visible"/>
		</clipPath>
		<path clip-path="url(#SVGID_16_)" fill="#FFFFFF" d="M1202.609,497.276H720.734c-1.103,0-2.003-0.901-2.003-2.003V226.469
			c0-1.102,0.9-2.003,2.003-2.003h481.875c1.101,0,2.002,0.901,2.002,2.003v268.805
			C1204.611,496.375,1203.71,497.276,1202.609,497.276"/>
	</g>
	<g clip-path="url(#SVGID_2_)">
		<defs>
			<path id="SVGID_17_" d="M720.733,224.466c-1.101,0-2.001,0.901-2.001,2.003v268.804c0,1.102,0.9,2.003,2.001,2.003h481.876
				c1.101,0,2.002-0.901,2.002-2.003V226.469c0-1.102-0.901-2.003-2.002-2.003H720.733z"/>
		</defs>
		<clipPath id="SVGID_18_">
			<use xlink:href="#SVGID_17_"  overflow="visible"/>
		</clipPath>
		<g clip-path="url(#SVGID_18_)">
			<defs>
				<rect id="SVGID_19_" x="711.227" y="217.829" width="501.146" height="285.421"/>
			</defs>
			<clipPath id="SVGID_20_">
				<use xlink:href="#SVGID_19_"  overflow="visible"/>
			</clipPath>
			<g transform="matrix(1 0 0 1 0 -1.525879e-05)" clip-path="url(#SVGID_20_)">
				
					<image overflow="visible" width="1510" height="860" xlink:href="8C0E4A9949CE1A59.jpg"  transform="matrix(0.3319 0 0 0.3319 711.2266 217.8286)">
				</image>
			</g>
		</g>
	</g>
	<g clip-path="url(#SVGID_2_)">
		<defs>
			<path id="SVGID_21_" d="M720.733,224.466c-1.101,0-2.001,0.901-2.001,2.003v268.804c0,1.102,0.9,2.003,2.001,2.003h481.876
				c1.101,0,2.002-0.901,2.002-2.003V226.469c0-1.102-0.901-2.003-2.002-2.003H720.733z"/>
		</defs>
		<clipPath id="SVGID_22_">
			<use xlink:href="#SVGID_21_"  overflow="visible"/>
		</clipPath>
		<g clip-path="url(#SVGID_22_)">
			<defs>
				<rect id="SVGID_23_" x="701.663" y="213.731" width="523" height="293.066"/>
			</defs>
			<clipPath id="SVGID_24_">
				<use xlink:href="#SVGID_23_"  overflow="visible"/>
			</clipPath>
			<g transform="matrix(1 0 0 1 0 1.525879e-05)" clip-path="url(#SVGID_24_)">
				
					<image overflow="visible" width="1574" height="882" xlink:href="8C0E4A9949CE1A5F.jpg"  transform="matrix(0.3323 0 0 0.3323 701.6631 213.731)">
				</image>
			</g>
		</g>
	</g>
	<g clip-path="url(#SVGID_2_)">
		<text transform="matrix(1 0 0 1 819.9854 361.8672)"><tspan x="0" y="0" fill="#FFFFFF" font-family="'TitilliumText15L-800wt'" font-size="33.1885" letter-spacing="3">T</tspan><tspan x="20.013" y="0" fill="#FFFFFF" font-family="'TitilliumText15L-800wt'" font-size="33.1885" letter-spacing="3">AL</tspan><tspan x="64.518" y="0" fill="#FFFFFF" font-family="'TitilliumText15L-800wt'" font-size="33.1885" letter-spacing="3">K</tspan><tspan x="88.181" y="0" fill="#FFFFFF" font-family="'TitilliumText15L-800wt'" font-size="33.1885" letter-spacing="3"> WIT</tspan><tspan x="167.633" y="0" fill="#FFFFFF" font-family="'TitilliumText15L-800wt'" font-size="33.1885" letter-spacing="3">H</tspan><tspan x="193.951" y="0" fill="#FFFFFF" font-family="'TitilliumText15L-800wt'" font-size="33.1885" letter-spacing="3"> US</tspan><tspan x="252.527" y="0" fill="#FFFFFF" font-family="'TitilliumText15L-800wt'" font-size="33.1885"> </tspan></text>
	</g>
	<g clip-path="url(#SVGID_2_)">
		<text transform="matrix(1 0 0 1 1084.3975 361.8672)" fill="#FFFFFF" font-family="'FontAwesome'" font-size="33.1885"></text>
	</g>
	<g clip-path="url(#SVGID_2_)">
		<defs>
			<rect id="SVGID_25_" width="1247.088" height="532.871"/>
		</defs>
		<clipPath id="SVGID_26_">
			<use xlink:href="#SVGID_25_"  overflow="visible"/>
		</clipPath>
		<path clip-path="url(#SVGID_26_)" fill="none" stroke="#FFFFFF" stroke-width="3" stroke-miterlimit="10" d="M1119.876,380.77
			H803.88c-1.101,0-2.002-0.901-2.002-2.002v-55.732c0-1.101,0.901-2.002,2.002-2.002h315.996c1.102,0,2.002,0.901,2.002,2.002
			v55.732C1121.878,379.868,1120.978,380.77,1119.876,380.77z"/>
	</g>
</g>
</svg>
