<?xml version="1.0" encoding="utf-8"?>
<!-- Generator: Adobe Illustrator 16.0.4, SVG Export Plug-In . SVG Version: 6.00 Build 0)  -->
<!DOCTYPE svg PUBLIC "-//W3C//DTD SVG 1.1//EN" "http://www.w3.org/Graphics/SVG/1.1/DTD/svg11.dtd">
<svg version="1.1" id="Layer_1" xmlns="http://www.w3.org/2000/svg" xmlns:xlink="http://www.w3.org/1999/xlink" x="0px" y="0px"
	 width="183.077px" height="92.746px" viewBox="0 0 183.077 92.746" enable-background="new 0 0 183.077 92.746"
	 xml:space="preserve">
<g>
	<defs>
		<rect id="SVGID_1_" y="0" width="183.077" height="92.746"/>
	</defs>
	<clipPath id="SVGID_2_">
		<use xlink:href="#SVGID_1_"  overflow="visible"/>
	</clipPath>
	<path clip-path="url(#SVGID_2_)" fill="#D2D2D2" d="M70.64,78.559c0.722,5.289,0.902,10.326,5.863,13.938H37.921
		c4.879-3.632,5.131-8.624,5.805-13.954c-1.245,0-2.211,0-3.176,0c-12.333,0-24.666,0.005-36.998-0.004
		c-3.203-0.002-3.548-0.359-3.549-3.616c-0.004-23.749-0.004-47.498,0-71.247c0.001-3.168,0.453-3.667,3.573-3.668
		c35.749-0.011,71.497-0.011,107.246,0c3.088,0.001,3.565,0.531,3.569,3.692c0.01,6.743,0.003,13.486,0.003,20.626
		c0.999,0,1.874,0,2.748,0c11,0,21.999-0.003,32.999,0.003c3.12,0.001,3.249,0.13,3.251,3.254
		c0.006,11.999,0.002,23.999,0.002,35.998v3.119c1.031,0,1.911,0,2.79,0c8,0,16.001,0.063,23.999-0.044
		c2.104-0.028,2.94,0.435,2.892,2.741c-0.149,6.913-0.112,13.833-0.018,20.748c0.027,1.985-0.687,2.603-2.611,2.6
		c-25.666-0.04-51.331-0.04-76.996,0c-1.913,0.003-2.694-0.585-2.612-2.589c0.134-3.245,0.106-6.502-0.027-9.746
		c-0.025-0.635-0.84-1.769-1.3-1.773C90.025,78.534,80.539,78.559,70.64,78.559 M110.711,24.327V4.193H4.118v60.461h96.756
		c0-0.903,0-1.636,0-2.367c0-11.75,0.041-23.5-0.038-35.248c-0.014-2.06,0.611-2.867,2.703-2.744
		C105.856,24.432,108.186,24.327,110.711,24.327 M130.501,86.228c0-1.097,0-1.92,0-2.744c0-4.749,0.074-9.499-0.035-14.245
		c-0.046-1.977,0.643-2.661,2.603-2.571c2.826,0.13,5.664,0.033,8.497,0.033c2.21,0,4.42,0,6.573,0V30.555h-42.032v55.673H130.501z
		 M139.514,90.502h34.283V68.911h-34.283V90.502z M136.025,77.064l-1.031-0.045c-0.671,0.897-1.825,1.776-1.859,2.697
		c-0.025,0.722,1.292,2.034,2.086,2.092c0.751,0.056,2.172-1.121,2.251-1.867C137.568,79.043,136.557,78.028,136.025,77.064"/>
</g>
</svg>
