<?xml version="1.0" encoding="utf-8"?>
<!-- Generator: Adobe Illustrator 16.0.4, SVG Export Plug-In . SVG Version: 6.00 Build 0)  -->
<!DOCTYPE svg PUBLIC "-//W3C//DTD SVG 1.1//EN" "http://www.w3.org/Graphics/SVG/1.1/DTD/svg11.dtd">
<svg version="1.1" id="Layer_1" xmlns="http://www.w3.org/2000/svg" xmlns:xlink="http://www.w3.org/1999/xlink" x="0px" y="0px"
	 width="139.012px" height="112.118px" viewBox="0 0 139.012 112.118" enable-background="new 0 0 139.012 112.118"
	 xml:space="preserve">
<g>
	<defs>
		<rect id="SVGID_1_" width="139.012" height="112.118"/>
	</defs>
	<clipPath id="SVGID_2_">
		<use xlink:href="#SVGID_1_"  overflow="visible"/>
	</clipPath>
	<path clip-path="url(#SVGID_2_)" fill="#D2D2D2" d="M139.013,32.287c0,17.831-14.455,32.287-32.287,32.287
		c-17.831,0-32.286-14.457-32.286-32.287C74.439,14.456,88.895,0,106.726,0C124.558,0,139.013,14.456,139.013,32.287"/>
	<path clip-path="url(#SVGID_2_)" fill="#D2D2D2" d="M69.439,32.287c0-0.132,0.009-0.262,0.01-0.394
		c-12.585,0-25.169-0.003-37.754-0.003c-6.9,0-6.895-0.001-9.256-6.395c-3.184-8.622-2.336-8.437-12.025-8.296
		c-1.999,0-4.007-0.116-5.995,0.028C1.81,17.418-0.015,19.405,0,21.781c0.016,2.469,2.013,4.377,4.727,4.443
		c1.915,0.047,3.845,0.15,5.744-0.027c1.896-0.178,2.779,0.518,3.432,2.303c6.642,18.166,13.372,36.299,20.07,54.445
		c1.617,4.382,2.957,5.099,7.506,4.501c7.666-1.009,15.352-1.872,23.03-2.788c11.56-1.38,23.12-2.756,34.681-4.124
		c2.692-0.319,4.354-1.622,4.963-4.414c0.479-2.193,0.971-4.383,1.455-6.575C85.533,68.953,69.439,52.505,69.439,32.287"/>
	<path clip-path="url(#SVGID_2_)" fill="#D2D2D2" d="M24.313,89.665c-5.912,0.056-10.836,5.104-10.82,11.096
		c0.015,6.147,4.953,11.007,11.148,10.973c6.226-0.034,11.152-4.966,11.053-11.064C35.591,94.33,30.705,89.604,24.313,89.665"/>
	<path clip-path="url(#SVGID_2_)" fill="#D2D2D2" d="M94.358,89.932c-6.17,0.072-10.989,4.953-10.993,11.13
		c-0.002,6.185,4.864,11.06,11.036,11.057c6.072-0.002,11.075-5.046,11.034-11.124C105.394,94.799,100.448,89.861,94.358,89.932"/>
	<path clip-path="url(#SVGID_2_)" fill="#FFFFFF" d="M105.181,23.857c-4.298,0.063-9.46,1.884-13.922,5.632
		c-0.953,0.801-1.687,0.887-2.464,0.326c-1.146-0.825-1.59-1.749-1.201-2.635c0.141-0.321,0.393-0.623,0.663-0.855
		c4.888-4.195,10.565-6.481,16.988-6.794c7.568-0.367,14.261,1.943,20.026,6.875c0.887,0.759,0.95,1.715,0.24,2.55
		c-1.156,1.356-2.036,1.593-3.109,0.705c-1.806-1.494-3.733-2.779-5.878-3.73C113.393,24.542,110.116,23.84,105.181,23.857"/>
	<path clip-path="url(#SVGID_2_)" fill="#FFFFFF" d="M106.053,28.155c5.259,0.097,9.373,1.505,12.966,4.372
		c0.962,0.766,1.025,1.842,0.191,2.733c-1.269,1.355-1.873,1.417-3.344,0.345c-5.62-4.096-12.734-4.119-18.322,0.042
		c-1.783,1.327-2.679,0.473-3.665-0.82c-0.513-0.674-0.266-1.667,0.488-2.273c2.382-1.918,5.061-3.255,8.059-3.876
		C103.838,28.385,105.286,28.263,106.053,28.155"/>
	<path clip-path="url(#SVGID_2_)" fill="#FFFFFF" d="M106.657,36.883c2.22,0.081,4.15,0.588,5.893,1.706
		c1.243,0.798,1.375,1.939,0.345,2.982c-1.601,1.62-3.212,3.228-4.83,4.831c-0.902,0.894-1.788,0.904-2.677,0.024
		c-1.64-1.621-3.271-3.249-4.891-4.891c-0.966-0.979-0.85-2.134,0.277-2.879C102.606,37.447,104.649,36.935,106.657,36.883"/>
</g>
</svg>
